<svg width="40" height="30" viewBox="0 0 40 30" xmlns="http://www.w3.org/2000/svg"><title>Flag_of_the_CIS</title><g fill="none" fill-rule="evenodd"><path fill="#0073CF" d="M0 0h40v30H0z"/><path d="M21.956 10.659a1.956 1.956 0 1 1-3.912 0 1.956 1.956 0 0 1 3.912 0z" fill="#FECB00"/><path d="M16.838 3.376c-3.3.062-6.697 7.993 1.232 12.014v11.234h1.01V15.153c-.837-.275-3.707-2.127-3.707-4.554 0-1.015.634-2.69 1.843-3.46.74-.473 1.467-.96 1.467-1.957 0-.997-.809-1.806-1.805-1.806h-.04zm6.225 0a1.806 1.806 0 0 0-1.746 1.806c0 .997.727 1.484 1.467 1.956 1.209.772 1.843 2.446 1.843 3.46 0 2.428-2.87 4.28-3.708 4.555v11.47h1.011V15.39c7.96-4.036 4.504-12.014 1.192-12.014h-.059zM11.59 6.198c-.882.038-1.483.684-1.483 1.693 0 1.871 3.246 6.794 6.578 8.026v10.707h1.009V15.466c-1.832-1.023-3.336-2.344-4.051-3.877-.679-1.454-.69-2.477-.69-3.012 0-.724.064-.665.064-1.124 0-1.157-1-1.255-1.406-1.255h-.02zm16.728 0c-.44.013-1.335.161-1.335 1.255 0 .46.063.4.063 1.124 0 .535-.01 1.558-.689 3.012-.715 1.533-2.219 2.854-4.05 3.877v11.158h1.008V15.917c3.332-1.232 6.578-6.155 6.578-8.026 0-1.017-.61-1.665-1.504-1.693h-.07zM9.314 9.038c-.485.024-.938.39-.938 1.072 0 .224-.015.537.59 1.284 1.72 2.119 5.493 4.713 6.332 4.9v10.33h1.01V15.992c-1.942-.858-4.738-3.597-5.96-6.3a1.072 1.072 0 0 0-1.034-.654zm21.268 0c-.37.018-.741.233-.93.653-1.222 2.704-4.018 5.443-5.96 6.301v10.632h1.01v-10.33c.839-.187 4.613-2.781 6.332-4.9.605-.747.59-1.06.59-1.284 0-.73-.52-1.098-1.042-1.072zM8.104 11.363c-.482.034-.819.547-.819.853 0 1.09 4.991 4.375 6.466 4.529v9.879h1.17V16.368c-1.147-.503-4.821-3.16-5.903-4.488-.329-.403-.644-.536-.914-.517zm23.694 0c-.248.017-.527.162-.816.517-1.082 1.328-4.756 3.985-5.904 4.488v10.256h1.171v-9.88c1.475-.153 6.466-3.439 6.466-4.528 0-.327-.383-.889-.917-.853zm-12.341 3.825v11.436h1.086V15.188h-1.086z" fill="#FFF" fill-rule="nonzero"/></g></svg>