<svg width="40" height="30" viewBox="0 0 40 30" xmlns="http://www.w3.org/2000/svg"><title>971-Free-Clipart-Of-A-Blue-And-Green-Earth</title><g fill="none" fill-rule="evenodd"><path fill="#2D4765" d="M0 0h40v30H0z"/><ellipse fill="#3B7AAF" cx="19.994" cy="14.994" rx="10.994" ry="10.994"/><path d="M20.231 4.041c-.081-.001-.17.014-.246.018-1.627-.024-3.247.372-4.716 1.063-3.182 1.488-5.53 4.626-6.047 8.105.091.6-.074 1.386.445 1.79-.08.29-.154.706.176.871.28 0 .663.137.652.472-.22.275-.654.48-.676.858.285.091.36.275.244.514.682.137.332 1.08.842 1.428.543.431 1.343.687 1.583 1.398.247.295.611.507.717.904.171.495.635.853 1.142.947.436.268.555.868 1.006 1.12.266.061.541.093.763.273.791.108 1.503.736 2.332.504-.111-.348-.608-.26-.854-.45-.232-.333-.596-.585-.617-1.025-.143-.49-.712-.073-.922-.348.25-.512.1-1.074.093-1.622.085-.396.572-.527.658-.92.014-.332-.265-.682-.063-1.001.244-.34.34-.98-.167-1.134-.43-.126-.67-.731-1.182-.527-.386.015.341-.427-.004-.546-.422-.134-.673-.563-1.117-.64-.158-.056-.458-.05-.447-.28.027-.137-.065-.289-.21-.234-.382.294-.923.115-1.232-.2-.23-.145-.32.186-.473.266-.373-.082-.587.288-.936.307-.103.008-.267.172-.306.008-.064-.234-.345-.275-.473-.453.05-.241.36-.407.23-.68-.026-.204-.262-.16-.38-.261-.079-.216.111-.406.301-.472.051-.165.093-.334.19-.48-.365-.275-.642.304-.844.522-.343-.074-.148-.53-.108-.77.046-.404.504-.495.748-.735.075-.394.632-.477.905-.23.293-.087.594-.26.9-.321.194.268.06.726.297.947.304-.114.296-.574.327-.86.129-.178.31-.328.383-.544.164-.585.966-.478 1.252-.988.179-.135.266.163.422.193.272-.242-.01-.683.229-.958.102-.41.785-.339.641-.831-.12-.386-.07-.872-.364-1.18.007.383-.374.487-.667.418-.133-.263.262-.48.146-.706-.533-.217-.907.296-1.077.725-.338.148-.585.822-.99.473.085-.356.036-.728.084-1.09.418-.298.924-.506 1.34-.82-.093-.072-.198-.147-.196-.28.331-.064.564-.346.89-.413.284-.027-.036.542.278.413.474-.078-.005.612.118.83.244.133.381-.169.443-.352.238-.137.608-.068.685-.41.251-.33-.03-.989.55-.985.474.001.956-.216 1.424-.1.067.258-.355.232-.397.467-.433.072-.989.563-.761 1.019-.294.16-.609.36-.78.646.448.193.859-.14 1.276-.25.37-.256.87-.406 1.087-.824.004-.647.75-.744 1.18-.995.246-.312-.16-.573.073-.87.229-.089.464-.292.448-.56-.047-.12-.142-.151-.248-.154zm2.898.472c.113.27.437.31.688.346.063.184-.348.159-.276.393.05.278-.316.483-.519.361.332-.181.18-.55-.14-.596-.213-.399-.626-.211-.772.144-.436.196-.33.881-.87.914-.396.034-.471.489-.497.806.183-.008.318-.155.492-.196.123.199.012.476.12.666.3.118.348-.32.487-.483.172-.2-.259-.396-.025-.575.295-.19.534-.445.744-.726-.038.406.076.927-.393 1.16.233.552.621-.285.983-.072-.103.285-.579.355-.57.706-.002.15-.042.414-.256.354-.306-.118-.456.22-.625.391-.373.05-.353-.475-.511-.631-.17.46-.01.961-.3 1.377-.202.126-.402.267-.625.353-.16.01-.433-.044-.446.188.133.226.365.49.168.755-.112.258-.33-.035-.48-.082-.222-.134-.7.012-.513.325.105.332-.466.499-.364.811.187.139-.143.23-.088.39.102.115.3-.017.385.122.152.201.37.408.609.46-.063-.34.246-.493.54-.467.434-.055.286-.616.567-.814.19-.329.582-.427.871-.656.075.336.447.314.708.378.25.175-.24.218-.192.415.129.056.28.247.431.147.085-.281.045-.828.464-.825.176.195.213.488.192.741.54.006.261-.935.805-.918.09.533.681.54 1.08.349-.22.512.432.722.3 1.198.423.13.83.41 1.05.82.254.257.606.492.65.884.032.148.055.408.26.402.338-.078.631-.364.723-.696.216-.075.512.046.683-.154.14-.1.092-.338.287-.378a.564.564 0 0 0-.473-.403c.049-.355-.328-.253-.55-.293-.072-.17-.188-.343-.161-.537.243-.037.314.325.542.36.327.075.478-.415.817-.3.213.017.053.419.322.3.296-.025.18.434.376.603.336.296.4.75.516 1.157.186.06.173-.26.214-.367.243-.54-.29-1.014-.192-1.556-1.072-3.338-3.863-6.084-7.236-7.051zM19.167 6.88c-.314.026-.692.134-.822.443.223.224.463-.134.708-.137.118.006.26-.293.114-.306zm1.296.994a.12.12 0 0 0-.014 0c-.189.209-.502.581-.3.856.132-.146.44-.265.29-.5-.08-.093.157-.35.024-.356zm-.49.338c-.162.094-.457.254-.349.48.27.16.504-.43.348-.48zm1.98 1.386c.023.004-.021.073-.019.103-.098.319.454.374.38.693-.482.102-.875-.516-.39-.786a.06.06 0 0 1 .029-.01zm.267 1.787a.44.44 0 0 0-.075.006c-.367.104-.721.258-1.114.24-.3-.01-.387.434-.696.337a.627.627 0 0 0-.523.128c-.302.13.078.595-.285.699-.48.153-.346.764-.775.982-.293.203.079.584-.18.797-.077.118-.338.133-.31.307.2.124.376.285.523.469a1.926 1.926 0 0 0-.137.542c.33.216.714.402 1.12.35.495-.067.98.104 1.473.058.225-.012.449.131.564.317-.014.722.765 1.268.622 2.01-.027.287-.37.438-.372.721.534.28.6.923.914 1.383.166.444.637.608.972.894.297.304.767.135 1.106.353.388-.003.203-.57.456-.775.568-.638.575-1.513.558-2.312.35-.681-.328-1.318-.149-2.02.04-.69.835-.87 1.152-1.39.239-.427.627-.743 1.034-1 .308-.123.18-.566.06-.747-.375-.034-.443.531-.842.362-.637-.209-.8-.966-1.356-1.274-.192-.202 0-.568-.24-.741-.227-.233-.594-.2-.835-.009-.293.235-.658.04-.979-.005-.146-.145-.473-.472-.63-.16-.163.4-.71.268-.978.153.285-.181.274-.669-.078-.674zm-10.315 1.351c.223.365-.448.318-.264.578.428.105.41.752.858.881.199.002.471.09.637-.046-.144-.137-.372-.077-.529-.182-.15-.213-.356-.422-.393-.688.116-.218-.153-.498-.31-.543zm.589 1.636c-.01 0-.018 0-.027.002-.157.16.439.325.403.087-.129-.017-.246-.09-.376-.089zm-.036.36c.027.257.31.386.519.436.11-.246-.322-.404-.52-.436zm14.955 3.136c-.3.308-1.044.533-.825 1.079.202.357-.235.636-.328.939.145.19.448.042.611-.054.151-.422.282-.872.54-1.237-.108-.225-.013-.555.002-.727zm1.84 2.86a.131.131 0 0 0-.053.014c-.31.06-.305.5-.597.607-.31.238-.722.177-1.067.304.124.156.266.356.052.52-.35.321-.648.702-1.055.958.129.127.293-.03.442-.024.105.096.021.227-.021.331.913-.67 1.607-1.597 2.254-2.517.033-.054.111-.19.045-.193z" fill="#39B007" fill-rule="nonzero"/><ellipse fill="#FFF" fill-rule="nonzero" opacity=".3" cx="18" cy="13.5" rx="8" ry="8.5"/></g></svg>