<svg width="31" height="30" viewBox="0 0 31 30" fill="none" xmlns="http://www.w3.org/2000/svg">
<path d="M2.7593 17.7299H27.2994C28.8124 17.7299 30.0587 16.4982 30.0587 14.9706C30.0587 13.4492 28.8209 12.2113 27.2994 12.2113H25.3033V10.3327C25.3033 4.63521 20.6944 0 15.0294 0C9.36428 0 4.75538 4.63521 4.75538 10.3327V12.2113H2.7593C1.23781 12.2113 0 13.4492 0 14.9706C0 16.5038 1.25184 17.7299 2.7593 17.7299ZM6.51663 10.3327C6.51663 5.60636 10.3354 1.76125 15.0294 1.76125C19.7233 1.76125 23.5421 5.60636 23.5421 10.3327V12.2113C20.1872 12.2113 10.0527 12.2113 6.51663 12.2113V10.3327Z" fill="white"/>
<path d="M11.6976 10.4501C12.3649 8.22775 14.3039 6.55039 16.6652 6.26618C13.2523 4.48914 9.08875 6.64086 8.56519 10.4501H11.6976Z" fill="white"/>
<path d="M18.8906 8.26867C16.8526 7.46865 14.4938 8.40053 13.5734 10.4501H21.182C20.7353 9.45552 19.9099 8.66701 18.8906 8.26867Z" fill="white"/>
<path d="M2.1875 19.4912C2.52818 21.3248 3.21578 23.1728 4.23801 24.9105L9.41134 19.4912H2.1875Z" fill="white"/>
<path d="M25.9315 19.4912L15.8752 30H20.8045C20.9816 30 21.1546 29.9466 21.3009 29.8468C24.7385 27.5011 27.1316 23.4721 27.8713 19.4912H25.9315Z" fill="white"/>
<path d="M23.4938 19.4912H18.8868L8.90268 29.9261C9.01311 29.9742 9.13258 30 9.25423 30H13.4375L23.4938 19.4912Z" fill="white"/>
<path d="M11.8462 19.4912L5.23474 26.417C5.91053 27.3279 6.66558 28.1484 7.48445 28.8608L16.4492 19.4912H11.8462Z" fill="white"/>
</svg>
