<svg width="36" height="36" viewBox="0 0 36 36" fill="none" xmlns="http://www.w3.org/2000/svg">
<circle cx="18" cy="18" r="18" fill="#8F683A"/>
<path d="M8.25809 19.3869H26.5006C27.6253 19.3869 28.5517 18.4712 28.5517 17.3357C28.5517 16.2046 27.6316 15.2845 26.5006 15.2845H25.0167V13.8879C25.0167 9.6526 21.5906 6.20691 17.3793 6.20691C13.1681 6.20691 9.74193 9.6526 9.74193 13.8879V15.2845H8.25809C7.12706 15.2845 6.20691 16.2046 6.20691 17.3357C6.20691 18.4754 7.13749 19.3869 8.25809 19.3869ZM11.0512 13.8879C11.0512 10.3745 13.89 7.51618 17.3793 7.51618C20.8687 7.51618 23.7074 10.3745 23.7074 13.8879V15.2845C21.2136 15.2845 13.6798 15.2845 11.0512 15.2845V13.8879Z" fill="white"/>
<path d="M14.9026 13.9752C15.3986 12.3232 16.8401 11.0763 18.5954 10.865C16.0583 9.54401 12.9632 11.1435 12.574 13.9752H14.9026Z" fill="white"/>
<path d="M20.2496 12.3536C18.7346 11.7589 16.9812 12.4516 16.297 13.9752H21.953C21.621 13.2359 21.0073 12.6497 20.2496 12.3536Z" fill="white"/>
<path d="M7.83304 20.6961C8.08629 22.0592 8.59743 23.4329 9.35733 24.7247L13.203 20.6961H7.83304Z" fill="white"/>
<path d="M25.4837 20.6961L18.0081 28.5081H21.6724C21.8041 28.5081 21.9326 28.4684 22.0414 28.3942C24.5968 26.6505 26.3758 23.6554 26.9256 20.6961H25.4837Z" fill="white"/>
<path d="M23.2604 21.1035H19.8357L12.4138 28.8605C12.4959 28.8963 12.5847 28.9154 12.6751 28.9154H15.7848L23.2604 21.1035Z" fill="white"/>
<path d="M15.013 20.6961L10.0983 25.8446C10.6006 26.5217 11.1619 27.1316 11.7706 27.6612L18.4348 20.6961H15.013Z" fill="white"/>
</svg>
