<svg width="22" height="22" viewBox="0 0 22 22" fill="none" xmlns="http://www.w3.org/2000/svg">
<path d="M19.5211 13.3239C18.9014 13.3239 17.9718 13.0141 17.3521 13.0141C16.4225 12.7042 15.493 12.7042 14.8732 13.6338L13.3239 14.8732C10.8451 13.3239 8.3662 11.1549 7.12676 8.3662L8.3662 7.12676C8.98592 6.50704 9.29577 5.57747 8.98592 4.64789C8.98592 3.71831 8.67606 3.09859 8.67606 2.16901C8.3662 0.929577 7.43662 0 5.88732 0H2.47887C1.85915 0 1.23944 0.309859 0.619718 0.929577C0.309859 1.23944 0 1.85915 0 2.47887C0 2.78873 0 2.78873 0 2.78873C0.309859 5.26761 0.929577 7.74648 1.85915 9.91549C3.09859 12.0845 4.33803 13.9437 6.19718 15.8028C7.74648 17.662 9.91549 18.9014 12.0845 19.831C14.2535 21.0704 16.7324 21.6901 19.2113 22C19.831 22 20.4507 21.6901 21.0704 21.3803C21.6901 20.7606 22 20.1408 22 19.2113V15.8028C22 14.5634 21.0704 13.3239 19.5211 13.3239Z" fill="#8F683A"/>
</svg>
