<svg width="19" height="24" viewBox="0 0 19 24" fill="none" xmlns="http://www.w3.org/2000/svg">
<path d="M9.0422 0.0397949C4.0534 0.0397949 0 4.09319 0 9.082C0 12.5118 1.559 16.2534 4.3652 19.3714C6.5478 21.8658 8.4186 23.4248 8.7304 23.4248C8.7304 23.4248 8.7304 23.4248 9.0422 23.4248H9.354C9.6658 23.4248 11.5366 21.8658 13.7192 19.3714C16.5254 16.2534 18.0844 12.5118 18.0844 9.082C18.0844 4.09319 14.031 0.0397949 9.0422 0.0397949ZM9.0422 12.5118C7.1714 12.5118 5.6124 10.9528 5.6124 9.082C5.6124 6.89939 7.1714 5.34039 9.0422 5.34039C10.913 5.34039 12.472 6.89939 12.472 9.082C12.472 10.9528 10.913 12.5118 9.0422 12.5118Z" fill="#8F683A"/>
</svg>
