<svg width="44" height="44" viewBox="0 0 44 44" fill="none" xmlns="http://www.w3.org/2000/svg">
<path d="M0 5.17647C0 3.88235 0.323529 2.58824 1.29412 1.61765C2.26471 0.647059 3.88235 0 5.17647 0H11.9706C14.8824 0 16.8235 1.94118 17.1471 4.52941C17.4706 6.14706 17.7941 7.76471 18.1176 9.05882C18.7647 11 18.1176 12.9412 16.8235 14.2353L14.2353 17.1471C17.1471 22.6471 21.6765 26.8529 26.8529 30.0882L29.7647 27.1765C31.0588 25.8824 33 25.2353 34.9412 25.8824C36.5588 26.2059 37.8529 26.5294 39.4706 26.8529C42.0588 27.1765 44 29.4412 44 32.0294V38.8235C44 40.4412 43.3529 41.7353 42.3824 42.7059C41.4118 43.6765 39.7941 44 38.5 44C33.3235 43.6765 28.4706 42.3824 23.9412 40.1176C19.7353 37.8529 15.8529 35.2647 12.2941 31.7059C8.73529 28.4706 6.14706 24.2647 3.88235 20.0588C1.94118 15.5294 0.323529 10.6765 0 5.82353C0 5.5 0 5.5 0 5.17647ZM14.8824 10.6765C14.8824 10.3529 14.8824 10.3529 14.8824 10.0294C14.2353 8.41177 13.9118 6.79412 13.9118 4.85294C13.5882 4.20588 12.9412 3.55882 11.9706 3.55882H5.17647C4.52941 3.55882 4.20588 3.55882 3.88235 3.88235C3.55882 4.52941 3.55882 4.85294 3.55882 5.5C5.17647 23.9412 20.0588 38.8235 38.8235 40.4412C39.1471 40.7647 39.7941 40.4412 40.1176 40.1176C40.4412 39.7941 40.4412 39.4706 40.4412 38.8235V32.0294C40.4412 31.0588 39.7941 30.4118 39.1471 30.0882C37.2059 30.0882 35.5882 29.7647 33.9706 29.1176C33.3235 28.7941 32.6765 29.1176 32.0294 29.4412L27.5 34.2941L26.5294 33.6471C19.7353 30.0882 13.9118 24.5882 10.3529 17.4706L10.0294 16.5L14.5588 11.9706C14.8824 11.6471 14.8824 11 14.8824 10.6765Z" fill="#8F683A"/>
</svg>
