<svg width="67" height="67" viewBox="0 0 67 67" fill="none" xmlns="http://www.w3.org/2000/svg">
<path d="M50.6019 39.834C45.945 39.834 42.1565 43.6225 42.1565 48.2794C42.1565 52.9363 45.945 56.7248 50.6019 56.7248C55.2596 56.7248 59.0473 52.9363 59.0473 48.2794C59.0473 43.6225 55.2588 39.834 50.6019 39.834ZM50.6019 52.5021C48.2731 52.5021 46.3792 50.6082 46.3792 48.2794C46.3792 45.9506 48.2731 44.0567 50.6019 44.0567C52.9307 44.0567 54.8246 45.9506 54.8246 48.2794C54.8246 50.6083 52.9307 52.5021 50.6019 52.5021Z" fill="#8F683A"/>
<path d="M21.7469 39.834C17.09 39.834 13.3015 43.6225 13.3015 48.2794C13.3015 52.9363 17.09 56.7248 21.7469 56.7248C26.4038 56.7248 30.1923 52.9363 30.1923 48.2794C30.1923 43.6225 26.4038 39.834 21.7469 39.834ZM21.7469 52.5021C19.4181 52.5021 17.5242 50.6082 17.5242 48.2794C17.5242 45.9506 19.4181 44.0567 21.7469 44.0567C24.075 44.0567 25.9696 45.9506 25.9696 48.2794C25.9696 50.6083 24.0756 52.5021 21.7469 52.5021Z" fill="#8F683A"/>
<path d="M56.2892 15.6605C55.9302 14.9476 55.2004 14.4978 54.4023 14.4978H43.2825V18.7205H53.1003L58.8494 30.1555L62.6232 28.2581L56.2892 15.6605Z" fill="#8F683A"/>
<path d="M44.2679 46.2385H28.2921V50.4612H44.2679V46.2385Z" fill="#8F683A"/>
<path d="M15.4127 46.2385H8.09352C6.9273 46.2385 5.98224 47.1837 5.98224 48.3498C5.98224 49.516 6.92744 50.4611 8.09352 50.4611H15.4129C16.5791 50.4611 17.5242 49.5159 17.5242 48.3498C17.5242 47.1836 16.579 46.2385 15.4127 46.2385Z" fill="#8F683A"/>
<path d="M66.5567 33.331L62.4037 27.9823C62.0047 27.4671 61.3889 27.1658 60.7364 27.1658H45.3939V12.3864C45.3939 11.2202 44.4487 10.2751 43.2827 10.2751H8.09352C6.92731 10.2751 5.98224 11.2203 5.98224 12.3864C5.98224 13.5525 6.92744 14.4977 8.09352 14.4977H41.1712V29.2771C41.1712 30.4433 42.1164 31.3884 43.2825 31.3884H59.7025L62.7773 35.3492V46.2382H56.9359C55.7697 46.2382 54.8246 47.1834 54.8246 48.3495C54.8246 49.5157 55.7698 50.4608 56.9359 50.4608H64.8886C66.0548 50.4608 66.9999 49.5156 67 48.3495V34.626C67 34.1572 66.8438 33.7012 66.5567 33.331Z" fill="#8F683A"/>
<path d="M15.2721 35.541H5.55983C4.39361 35.541 3.44855 36.4862 3.44855 37.6523C3.44855 38.8185 4.39374 39.7636 5.55983 39.7636H15.272C16.4382 39.7636 17.3832 38.8184 17.3832 37.6523C17.3834 36.4862 16.4382 35.541 15.2721 35.541Z" fill="#8F683A"/>
<path d="M20.1281 27.2363H2.11129C0.945197 27.2363 0 28.1815 0 29.3477C0 30.514 0.945197 31.459 2.11129 31.459H20.1281C21.2944 31.459 22.2394 30.5138 22.2394 29.3477C22.2394 28.1817 21.2944 27.2363 20.1281 27.2363Z" fill="#8F683A"/>
<path d="M23.5767 18.9319H5.55983C4.39361 18.9319 3.44855 19.8771 3.44855 21.0432C3.44855 22.2094 4.39374 23.1545 5.55983 23.1545H23.5767C24.7429 23.1545 25.688 22.2093 25.688 21.0432C25.6881 19.8771 24.7429 18.9319 23.5767 18.9319Z" fill="#8F683A"/>
</svg>
