<svg width="68" height="48" viewBox="0 0 68 48" fill="none" xmlns="http://www.w3.org/2000/svg">
<path d="M61.2 0.199951H6.80002C3.04452 0.199951 0 3.24447 0 6.99997V41C0 44.7555 3.04452 47.8001 6.80002 47.8001H61.2C64.9555 47.8001 68 44.7555 68 41V6.99997C68 3.24447 64.9555 0.199951 61.2 0.199951ZM64.6 41.085C64.5536 42.9622 62.9943 44.4464 61.1172 44.4001C61.1165 44.4001 61.1157 44.4001 61.1151 44.4001H6.88494C5.00776 44.4476 3.44752 42.9643 3.40001 41.0873C3.40001 41.0866 3.40001 41.0858 3.40001 41.0851V24.8501H64.6V41.085ZM64.6 21.4499H3.40001V12.9499H64.6V21.4499ZM64.6 9.54989H3.40001V6.91488C3.44638 5.0377 5.00565 3.55343 6.88283 3.5998C6.88348 3.5998 6.88429 3.5998 6.88494 3.5998H61.1149C62.9921 3.55229 64.5523 5.03558 64.5998 6.9126C64.5998 6.91325 64.5998 6.91406 64.5998 6.91472V9.54989H64.6Z" fill="#8F683A"/>
<path d="M14.62 39.8099C14.6484 39.8104 14.6771 39.8105 14.7056 39.8105C15.9082 39.8104 17.0215 39.4306 17.9347 38.7862C18.8709 39.4468 20.0166 39.8286 21.25 39.8099C21.2786 39.8099 21.3071 39.8097 21.3356 39.8092C24.3866 39.7622 26.8218 37.2509 26.7749 34.1998C26.7749 34.1717 26.7748 34.1435 26.7743 34.1156C26.7273 31.0177 24.1778 28.5442 21.08 28.5912C19.9076 28.609 18.8252 28.9856 17.9344 29.6143C17.0433 28.9856 15.9611 28.6091 14.7898 28.5912C11.6918 28.5442 9.14234 31.0177 9.09549 34.1156C9.04863 37.2134 11.5221 39.763 14.62 39.8099ZM21.25 32.0749C22.4237 32.0749 23.3749 33.0263 23.3749 34.1998C23.3771 34.2555 23.3771 34.3111 23.3749 34.3668C23.3289 35.5865 22.3028 36.5378 21.083 36.4917C20.6719 36.4763 20.2928 36.3474 19.9705 36.1393C20.1931 35.5349 20.315 34.8817 20.3148 34.2C20.3148 33.5691 20.2089 32.963 20.0166 32.3967C20.3752 32.1779 20.7991 32.0579 21.25 32.0749ZM12.0212 33.8112C12.2594 32.614 13.423 31.8368 14.6201 32.075C14.9049 32.0184 15.198 32.0184 15.4827 32.075C15.636 32.1055 15.7819 32.1515 15.9201 32.2106C15.6754 32.8548 15.5446 33.5547 15.5556 34.2857C15.5662 34.9834 15.7047 35.6488 15.9468 36.2613C15.5441 36.4403 15.085 36.5026 14.62 36.41C14.3353 36.4667 14.0421 36.4667 13.7574 36.41C12.5602 36.1717 11.7829 35.0081 12.0212 33.8112Z" fill="#8F683A"/>
<path d="M43.435 38.45H58.48C58.5383 38.4531 58.5965 38.4531 58.6548 38.45C59.5454 38.4017 60.2284 37.6406 60.1801 36.75V31.65C60.1801 30.711 59.419 29.95 58.48 29.95H43.435C42.496 29.95 41.735 30.711 41.735 31.65V36.75C41.7319 36.8082 41.7319 36.8665 41.735 36.9247C41.7833 37.8153 42.5444 38.4981 43.435 38.45ZM45.135 33.35H56.78V35.05H45.135V33.35Z" fill="#8F683A"/>
</svg>
