<svg width="52" height="52" viewBox="0 0 52 52" fill="none" xmlns="http://www.w3.org/2000/svg">
<path d="M26.0314 3.39111C12.9071 3.39111 2.22943 14.0687 2.22943 27.1931C2.22943 40.3175 12.907 50.995 26.0314 50.995C39.1558 50.995 49.8333 40.3174 49.8333 27.1931C49.8334 14.0687 39.1558 3.39111 26.0314 3.39111ZM26.0314 47.2269C14.9846 47.2269 5.9976 38.24 5.9976 27.1931C5.9976 16.1462 14.9846 7.15929 26.0314 7.15929C37.0783 7.15929 46.0652 16.1469 46.0652 27.1931C46.0652 38.2393 37.0783 47.2269 26.0314 47.2269Z" fill="#8F683A"/>
<path d="M35.2005 26H27.6642V14.8841C27.6642 13.8435 26.8208 13 25.7801 13C24.7395 13 23.8961 13.8435 23.8961 14.8841V27.8841C23.8961 28.9247 24.7395 29.7682 25.7801 29.7682H35.2005C36.2417 29.7682 37.0846 28.9247 37.0846 27.8841C37.0846 26.8435 36.2412 26 35.2005 26Z" fill="#8F683A"/>
<path d="M12.723 42.5704C11.9204 41.9084 10.7334 42.0228 10.0709 42.8247L5.04672 48.9165C4.38473 49.7198 4.49909 50.9068 5.30164 51.5693C5.65274 51.8588 6.07727 52.0001 6.49927 52.0001C7.04191 52.0001 7.5807 51.7665 7.95374 51.3149L12.9779 45.2231C13.6399 44.4198 13.5257 43.2329 12.723 42.5704Z" fill="#8F683A"/>
<path d="M47.0166 48.9165L41.9924 42.8247C41.3312 42.0228 40.1429 41.9084 39.3397 42.5704C38.5378 43.233 38.4234 44.4206 39.0854 45.2231L44.1096 51.3149C44.4814 51.7665 45.0208 52.0001 45.5641 52.0001C45.9861 52.0001 46.4106 51.8588 46.7623 51.5693C47.5642 50.9067 47.6786 49.7191 47.0166 48.9165Z" fill="#8F683A"/>
<path d="M10.0797 0C4.57386 0 0.0942383 4.47962 0.0942383 9.98552C0.0942383 13.6626 2.13534 17.0426 5.42048 18.8048L7.20219 15.4844C5.1423 14.3797 3.86241 12.2721 3.86241 9.98552C3.86241 6.55718 6.65142 3.76817 10.0798 3.76817C12.5372 3.76817 14.7679 5.24651 15.7627 7.53441L19.2181 6.03159C17.6253 2.36762 14.0381 0 10.0797 0Z" fill="#8F683A"/>
<path d="M41.9203 0C37.8414 0 34.2227 2.43425 32.6998 6.20232L36.1934 7.61414C37.1379 5.2779 39.3856 3.76817 41.9197 3.76817C45.3481 3.76817 48.1371 6.55718 48.1371 9.98552C48.1371 12.2829 46.9294 14.3189 44.9052 15.4317L46.7221 18.7332C49.9194 16.9741 51.9058 13.6224 51.9058 9.98552C51.9058 4.47962 47.4267 0 41.9203 0Z" fill="#8F683A"/>
</svg>
