<svg width="15" height="15" viewBox="0 0 15 15" fill="none" xmlns="http://www.w3.org/2000/svg">
<path d="M7.50001 7.5C9.66667 7.5 11.3333 5.83333 11.3333 3.66667C11.3333 1.66667 9.66667 0 7.50001 0C5.50002 0 3.83336 1.66667 3.83336 3.66667C3.83336 5.83333 5.50002 7.5 7.50001 7.5ZM8.5 6.33333C8.33334 6.33333 8.33334 6.5 8.33334 6.5L8.5 6.33333Z" fill="#8F683A"/>
<path d="M10.5 7.66675C10.3333 7.66675 9.99999 7.66675 9.99999 7.83341C9.49999 8.66675 8.49999 9.33341 7.5 9.33341C6.5 9.33341 5.66667 8.66675 5.16667 7.83341C5.00001 7.66675 4.66668 7.66675 4.50001 7.66675C1.83336 8.83341 3.05176e-05 11.6667 3.05176e-05 14.6667C3.05176e-05 14.8334 0.166696 15.0001 0.500028 15.0001H14.6666C14.8333 15.0001 15 14.8334 15 14.6667C15 11.6667 13.3333 8.83341 10.5 7.66675Z" fill="#8F683A"/>
</svg>
