<svg width="15" height="15" viewBox="0 0 15 15" fill="none" xmlns="http://www.w3.org/2000/svg">
<path d="M13.3099 9.08451C12.8873 9.08451 12.2535 8.87324 11.831 8.87324C11.1972 8.66197 10.5634 8.66197 10.1408 9.29577L9.08451 10.1408C7.39437 9.08451 5.70423 7.60563 4.85915 5.70423L5.70423 4.85915C6.12676 4.43662 6.33803 3.80282 6.12676 3.16901C6.12676 2.53521 5.91549 2.11268 5.91549 1.47887C5.70423 0.633803 5.07042 0 4.01408 0H1.69014C1.26761 0 0.84507 0.211268 0.422535 0.633803C0.211268 0.84507 0 1.26761 0 1.69014C0 1.90141 0 1.90141 0 1.90141C0.211268 3.59155 0.633803 5.28169 1.26761 6.76056C2.11268 8.23944 2.95775 9.50704 4.22535 10.7746C5.28169 12.0423 6.76056 12.8873 8.23944 13.5211C9.71831 14.3662 11.4085 14.7887 13.0986 15C13.5211 15 13.9437 14.7887 14.3662 14.5775C14.7887 14.1549 15 13.7324 15 13.0986V10.7746C15 9.92958 14.3662 9.08451 13.3099 9.08451Z" fill="#8F683A"/>
</svg>
