<svg width="29" height="29" viewBox="0 0 29 29" fill="none" xmlns="http://www.w3.org/2000/svg">
<path fill-rule="evenodd" clip-rule="evenodd" d="M21.3133 0H7.72271C7.30176 0.120833 6.64028 0 5.07675 0.54375C2.97201 1.32917 1.22808 3.14167 0.44632 5.4375C-0.155034 7.18958 0.0253685 9.48542 0.0253685 11.4187C0.0253685 13.5333 0.0253685 15.7083 0.0253685 17.8229C0.0253685 19.8771 -0.155035 21.9312 0.506455 23.6833C1.70916 26.9458 4.53553 28.8792 8.02339 28.9396C10.068 29 12.293 28.9396 14.3376 28.9396C16.5025 28.9396 18.6072 29 20.712 28.9396C23.4181 28.9396 25.7032 27.7312 27.1465 25.7979C29.0708 23.2604 28.8303 21.1458 28.8303 17.9438C28.8303 15.8292 28.8303 13.6542 28.8303 11.5396C28.8303 7.6125 29.2512 4.53125 25.8235 1.75208C23.7187 0 21.7944 0.18125 21.3133 0ZM21.9147 4.35C22.937 4.35 23.7789 5.19583 23.7789 6.22292C23.7789 7.25 22.937 8.09583 21.9147 8.09583C20.8924 8.09583 20.1106 7.25 20.1106 6.22292C20.1106 5.19583 20.8924 4.35 21.9147 4.35ZM7.3619 18.0042C4.89635 12.8687 8.3842 6.8875 14.0369 6.58542C15.2396 6.525 16.2018 6.70625 17.2842 7.12917C18.1863 7.43125 19.2086 8.09583 19.8701 8.76042C20.1707 9.0625 20.4714 9.36458 20.712 9.72708C21.6741 10.9958 22.2154 12.5062 22.2755 14.0771C22.5762 19.8771 16.8633 23.8042 11.5112 21.8104C10.3085 21.3875 9.58691 20.7833 8.68488 19.8771C8.20379 19.3937 7.66258 18.6083 7.3619 18.0042ZM9.58691 16.9167C9.70718 17.2188 10.1281 17.8833 10.3687 18.125C11.0302 18.7292 11.5112 19.2125 12.3531 19.5146C16.0815 20.9646 20.0505 18.2458 19.8701 14.1979C19.8099 13.1104 19.4491 12.0833 18.7876 11.1771C18.5471 10.9354 18.3066 10.6937 18.066 10.4521C17.7052 10.0896 16.9836 9.60625 16.4424 9.425C15.6606 9.12292 15.0592 9.00208 14.1572 9.00208C10.2484 9.24375 7.84298 13.3521 9.58691 16.9167Z" fill="white"/>
</svg>
