<svg width="137" height="138" viewBox="0 0 137 138" fill="none" xmlns="http://www.w3.org/2000/svg">
<path d="M0 0H137V138L68.5 103L0 138V0Z" fill="#8F683A"/>
<path d="M31.332 44.3052C31.3076 44.2401 31.096 44.1709 30.6973 44.0977L29.6597 44.1953L28.5 44.2686L27.2305 44.3052C26.4167 44.3052 25.5907 44.2238 24.7524 44.061C24.2886 43.9715 23.8613 43.8698 23.4707 43.7559C23.0882 43.6338 22.665 43.471 22.2012 43.2676C21.363 42.8932 20.6143 42.4212 19.9551 41.8516C19.0436 41.0215 18.3153 39.9961 17.77 38.7754C17.5259 38.1895 17.3265 37.5791 17.1719 36.9443C17.0417 36.2933 16.9766 35.6707 16.9766 35.0767C16.9766 34.4663 17.0295 33.8804 17.1353 33.3188C17.2492 32.7573 17.4038 32.2161 17.5991 31.6953C18.1362 30.3525 18.9256 29.3475 19.9673 28.6802C21.0171 28.0047 22.0059 27.5897 22.9336 27.4351L24.2397 27.252C24.6873 27.2113 25.082 27.1909 25.4238 27.1909C25.9609 27.1909 26.6445 27.2397 27.4746 27.3374L28.9517 27.4961C29.2853 27.4961 29.5539 27.4473 29.7573 27.3496C29.9689 27.252 30.1195 27.1177 30.209 26.9468L31.332 31.6953L31.1245 31.793C30.8397 31.028 30.3962 30.4054 29.7939 29.9253C29.1917 29.4451 28.5244 29.0911 27.792 28.8633C27.0677 28.6354 26.38 28.5215 25.729 28.5215C24.6792 28.5215 23.7148 28.7412 22.8359 29.1807C21.9652 29.6201 21.2653 30.3485 20.7363 31.3657C20.2155 32.383 19.9551 33.6932 19.9551 35.2964C19.9551 36.5903 20.2847 37.8354 20.9438 39.0317C21.2694 39.634 21.66 40.1751 22.1157 40.6553C22.5715 41.1354 23.0801 41.5586 23.6416 41.9248C24.7809 42.6572 26.0098 43.0234 27.3281 43.0234C28.5163 43.0234 29.5539 42.7549 30.4409 42.2178C31.328 41.6807 32.1987 40.7082 33.0532 39.3003L33.2729 39.2271L31.332 44.3052ZM39.3643 28.8267C38.876 28.8267 38.4202 28.8551 37.9971 28.9121C37.5739 28.9609 37.167 29.0342 36.7764 29.1318C36.0602 29.3027 35.4214 29.6405 34.8599 30.145C34.3065 30.6414 33.8426 31.3332 33.4683 32.2202L33.2607 32.1226L34.4937 27.1909C34.5913 27.3862 34.9006 27.5205 35.4214 27.5938L35.9219 27.5449H45.5654C45.7689 27.5449 45.9032 27.5612 45.9683 27.5938C46.131 27.5938 46.245 27.5897 46.3101 27.5815C46.3833 27.5734 46.4769 27.5449 46.5908 27.4961C46.7617 27.4229 46.9123 27.3211 47.0425 27.1909L48.2754 32.1226L48.019 32.2202C47.2378 29.9578 45.2887 28.8267 42.1719 28.8267V41.2168C42.1719 41.9492 42.2451 42.4985 42.3916 42.8647C42.5381 43.231 42.7253 43.4629 42.9531 43.5605L43.3193 43.6948L43.771 43.7437V44H37.7651V43.7437C38.2534 43.7437 38.64 43.585 38.9248 43.2676C39.2178 42.9421 39.3643 42.3114 39.3643 41.3755V28.8267ZM53.9639 35.394C55.9577 35.394 57.6585 36.0614 59.0664 37.396L56.271 29.4004L53.9639 35.394ZM53.5977 36.627L52.0229 41.0215C51.966 41.1924 51.9131 41.3796 51.8643 41.583C51.8236 41.7783 51.7829 42.0347 51.7422 42.3521C51.7422 42.7915 51.8643 43.1333 52.1084 43.3774C52.3525 43.6216 52.6984 43.7437 53.146 43.7437V44H48.0068V43.7437C48.487 43.6948 48.8939 43.4832 49.2275 43.1089C49.5693 42.7264 49.9152 42.0794 50.2651 41.168L54.7207 29.4004C54.8184 29.14 54.8672 28.8958 54.8672 28.668C54.8672 28.1797 54.5986 27.8745 54.0615 27.7524V27.5449H59.6401V27.7524C59.1763 27.8745 58.9199 28.1797 58.8711 28.668L58.9688 29.0464L59.0664 29.4492L63.4976 42.1934C63.5545 42.3805 63.6196 42.5514 63.6929 42.7061C63.7743 42.8525 63.8882 43.0234 64.0347 43.2188C64.2869 43.5687 64.5962 43.7437 64.9624 43.7437V44H59.2373V43.7437C60.0592 43.5321 60.4702 42.9665 60.4702 42.0469C60.4702 41.2819 60.1732 40.4762 59.5791 39.6299C58.985 38.7835 58.159 38.0755 57.1011 37.5059C56.5558 37.2129 55.9984 36.9932 55.4287 36.8467C54.8672 36.7002 54.2568 36.627 53.5977 36.627ZM69.7354 35.1987C70.1829 35.0685 70.6549 34.9098 71.1514 34.7227C71.6478 34.5355 72.1117 34.332 72.543 34.1123C73.4707 33.6566 74.252 33.1479 74.8867 32.5864C75.5215 32.0168 75.8389 31.4471 75.8389 30.8774C75.8389 30.3485 75.6273 29.9212 75.2041 29.5957C74.7891 29.2702 74.2804 29.0342 73.6782 28.8877C73.076 28.7412 72.5308 28.668 72.0425 28.668C71.6681 28.668 71.3385 28.7005 71.0537 28.7656C70.777 28.8307 70.5207 28.9202 70.2847 29.0342C69.9185 29.2214 69.7354 29.616 69.7354 30.2183V35.1987ZM69.7354 36.4194V41.168C69.7354 42.8851 70.2725 43.7437 71.3467 43.7437V44H65.3408V43.7437C65.764 43.6541 66.0692 43.5524 66.2563 43.4385C66.4517 43.3245 66.6226 43.0723 66.769 42.6816C66.8993 42.2666 66.9644 41.6807 66.9644 40.9238V30.2183C66.9644 29.437 66.826 28.8307 66.5493 28.3994C66.2808 27.9681 65.8779 27.7524 65.3408 27.7524V27.5449H74.8135C75.9121 27.5449 76.8073 27.7646 77.499 28.2041C78.1908 28.6354 78.5366 29.3068 78.5366 30.2183L78.4878 30.7676C78.4146 31.2559 78.1908 31.7523 77.8164 32.2568C77.6455 32.4928 77.4176 32.7451 77.1328 33.0137C76.8561 33.2741 76.5509 33.5223 76.2173 33.7583C75.5337 34.2384 74.6507 34.7064 73.5684 35.1621C72.5186 35.5934 71.2409 36.0125 69.7354 36.4194ZM92.5747 41.3511C92.5747 42.2463 92.2288 42.9176 91.5371 43.3652C90.8535 43.8047 89.9583 44.0244 88.8516 44.0244H79.3789V43.8169C79.916 43.8169 80.3188 43.6053 80.5874 43.1821C80.8641 42.7508 81.0024 42.1405 81.0024 41.3511V30.6455C81.0024 29.8643 80.9373 29.2824 80.8071 28.8999C80.6851 28.5174 80.5264 28.2692 80.3311 28.1553C80.1357 28.0332 79.8184 27.9233 79.3789 27.8257V27.5693H85.3848V27.8257C84.3105 27.8257 83.7734 28.6842 83.7734 30.4014V35.1499C85.2708 35.5405 86.5526 35.9596 87.6187 36.4072C88.6929 36.8548 89.5718 37.3268 90.2554 37.8232C90.9471 38.3115 91.4761 38.8079 91.8423 39.3125C92.2166 39.8089 92.4445 40.3053 92.5259 40.8018L92.5747 41.3511ZM89.877 40.6919C89.877 40.1222 89.5636 39.5607 88.937 39.0073C88.3185 38.4539 87.5332 37.9372 86.5811 37.457C85.7347 37.042 84.7988 36.6799 83.7734 36.3706V41.3511C83.7734 41.9451 83.9565 42.3398 84.3228 42.5352C84.5343 42.641 84.7866 42.7305 85.0796 42.8037C85.2179 42.8363 85.3604 42.8607 85.5068 42.877C85.6615 42.8932 85.8527 42.9014 86.0806 42.9014C86.3166 42.9014 86.5688 42.8851 86.8374 42.8525C87.106 42.82 87.3908 42.7671 87.6919 42.6938C88.2941 42.5474 88.8068 42.3114 89.23 41.9858C89.6613 41.6522 89.877 41.2209 89.877 40.6919ZM91.9521 27.5449H97.958V27.7524C97.3151 27.8745 96.8879 28.1268 96.6763 28.5093C96.4647 28.8918 96.3589 29.38 96.3589 29.9741V41.168C96.3589 41.9655 96.4769 42.5799 96.7129 43.0112C96.957 43.4425 97.3721 43.6867 97.958 43.7437V44H91.9521V43.7437C92.416 43.6704 92.7578 43.5361 92.9775 43.3408C93.2054 43.1374 93.3641 42.8485 93.4536 42.4741C93.5513 42.0998 93.6001 41.583 93.6001 40.9238V30.7676C93.6001 29.7096 93.4821 28.9691 93.2461 28.5459C93.0182 28.1146 92.5869 27.8501 91.9521 27.7524V27.5449ZM115.329 44H110.458V43.7437C110.979 43.7437 111.382 43.5402 111.667 43.1333C111.959 42.7183 112.106 42.1323 112.106 41.3755V29.5469L104.232 36.041L103.537 36.6025C103.382 36.7165 103.24 36.867 103.109 37.0542C102.987 37.2332 102.902 37.4611 102.853 37.7378C102.804 38.0063 102.78 38.3848 102.78 38.873V41.3999C102.78 42.8566 103.345 43.6379 104.477 43.7437V44H99.5571V43.7437C100.623 43.646 101.156 42.8647 101.156 41.3999V30.2183C101.156 29.5509 101.079 29.0505 100.924 28.7168C100.778 28.3831 100.603 28.1553 100.399 28.0332C100.31 27.9762 100.192 27.9233 100.045 27.8745L99.5571 27.7524V27.5449H104.477V27.7524C103.899 27.8582 103.472 28.0739 103.195 28.3994C102.918 28.7249 102.78 29.3841 102.78 30.377V33.7949L108.578 28.9487C109.018 28.5907 109.27 28.2977 109.335 28.0698C109.286 27.8582 109.083 27.7524 108.725 27.7524V27.5449H115.329V27.7524C114.694 27.8745 114.263 28.1512 114.035 28.5825C113.815 29.0138 113.705 29.612 113.705 30.377V41.3999C113.705 42.116 113.823 42.6613 114.059 43.0356C114.303 43.4019 114.726 43.6379 115.329 43.7437V44ZM108.078 26.2021L108.322 26.1777H108.505H108.664L108.896 26.1655L109.152 26.0923L109.689 25.8604L110.177 25.604L110.348 25.5186L110.519 25.3599L110.214 25.3354C110.124 25.3354 110.031 25.311 109.933 25.2622C109.746 25.1808 109.604 25.0547 109.506 24.8838C109.424 24.6966 109.384 24.5542 109.384 24.4565C109.384 24.367 109.404 24.2653 109.445 24.1514C109.477 24.0212 109.534 23.9154 109.616 23.834C109.697 23.7445 109.819 23.6549 109.982 23.5654C110.153 23.4759 110.32 23.4312 110.482 23.4312C110.548 23.4312 110.653 23.4515 110.8 23.4922C110.946 23.5166 111.076 23.5654 111.19 23.6387C111.288 23.6875 111.39 23.7892 111.496 23.9438C111.61 24.0903 111.687 24.2531 111.728 24.4321L111.764 24.7495C111.764 24.9204 111.719 25.0994 111.63 25.2866C111.549 25.4657 111.426 25.6284 111.264 25.7749L110.849 26.1045L110.458 26.3242L109.506 26.7393L108.847 26.9956C108.603 27.077 108.387 27.1177 108.2 27.1177H107.04C106.828 27.1177 106.564 27.0648 106.247 26.959L105.697 26.8003C105.567 26.7759 105.4 26.7148 105.197 26.6172L104.66 26.3242C104.546 26.2754 104.428 26.1981 104.306 26.0923L103.976 25.7749C103.821 25.6447 103.695 25.4779 103.598 25.2744C103.508 25.071 103.463 24.8919 103.463 24.7373L103.5 24.4321C103.524 24.2531 103.602 24.0822 103.732 23.9194C103.919 23.659 104.159 23.4922 104.452 23.4189L104.684 23.3945C104.855 23.3945 105.05 23.4556 105.27 23.5776C105.425 23.6509 105.535 23.7282 105.6 23.8096C105.665 23.8665 105.722 23.9723 105.771 24.127C105.819 24.2734 105.844 24.3833 105.844 24.4565C105.844 24.5542 105.807 24.6844 105.734 24.8472C105.636 25.0262 105.49 25.1646 105.294 25.2622C105.205 25.3029 105.095 25.3314 104.965 25.3477L104.708 25.3599L104.904 25.5186L105.05 25.604L105.514 25.8604L106.076 26.0923C106.247 26.1493 106.43 26.1777 106.625 26.1777L107.174 26.2144L107.541 26.2388L107.846 26.2266L108.078 26.2021ZM32.585 77.7534C33.2835 77.5728 33.693 77.4342 33.8135 77.3379C34.0303 77.1572 34.1387 76.7477 34.1387 76.1094L27.9238 57.3203V57.3926L21.6367 74.5918C21.5524 74.8447 21.4741 75.1217 21.4019 75.4229C21.3416 75.7119 21.2814 76.0913 21.2212 76.561C21.2212 77.0549 21.3898 77.3921 21.7271 77.5728C21.992 77.6932 22.4316 77.7534 23.0459 77.7534H23.5698C23.7384 77.7534 23.901 77.7534 24.0576 77.7534C24.2142 77.7534 24.3647 77.7655 24.5093 77.7896L27.978 77.916C28.2189 77.916 28.5321 77.91 28.9175 77.8979C29.3149 77.8859 29.5859 77.8799 29.7305 77.8799L32.585 77.7534ZM16 83.6611L16.271 78.5664L16.8491 78.3857C17.0177 78.3135 17.2406 78.0726 17.5176 77.6631C17.8066 77.2415 18.1017 76.7598 18.4028 76.2178C18.5233 75.9889 18.6618 75.6878 18.8184 75.3145C18.8906 75.1458 18.9629 74.9772 19.0352 74.8086L25.6294 57.3926C25.7739 57.0072 25.8462 56.6458 25.8462 56.3086C25.8462 55.5859 25.4487 55.1343 24.6538 54.9536V54.6465H32.9102V54.9536C32.2236 55.1343 31.8442 55.5859 31.772 56.3086L31.9165 56.8687L32.061 57.4648L38.6191 76.3262C38.7035 76.6032 38.7998 76.8561 38.9082 77.085C39.0286 77.3018 39.1973 77.5547 39.4141 77.8438C39.7874 78.3617 40.2451 78.6206 40.7871 78.6206L41.2026 83.6611H40.6606C40.6245 83.5527 40.5944 83.4443 40.5703 83.3359C40.5101 83.1432 40.4559 82.9927 40.4077 82.8843C40.1909 82.3182 39.9681 81.8726 39.7393 81.5474C39.5827 81.3306 39.4141 81.1318 39.2334 80.9512L38.6372 80.4453L38.0049 80.0298L37.3003 79.6685L36.5776 79.3975L35.8911 79.2168C35.3612 79.1084 34.8192 79.0542 34.2651 79.0542L31.0674 79.0361L26.0811 79.0181L21.6367 79C21.5042 79 21.3778 79 21.2573 79C21.1489 79 21.0164 79.012 20.8599 79.0361L19.9565 79.2349L19.3062 79.4155C19.1014 79.4998 18.8846 79.6143 18.6558 79.7588C18.3185 79.9756 18.0295 80.2285 17.7886 80.5176C17.632 80.7103 17.5055 80.9211 17.4092 81.1499L17.1382 81.8726L16.9033 82.7397C16.8311 83.1854 16.7467 83.4925 16.6504 83.6611H16ZM48.2305 66.0464V75.0435L48.1582 75.2964C48.1943 75.742 48.2786 76.1094 48.4111 76.3984C48.4834 76.6393 48.6821 76.826 49.0073 76.9585C49.5975 77.103 50.4045 77.2295 51.4282 77.3379C51.8979 77.3379 52.2292 77.3319 52.4219 77.3198C52.6146 77.2957 52.9398 77.2476 53.3975 77.1753C53.8672 77.103 54.4694 76.9645 55.2041 76.7598C56.4085 76.4346 57.2938 75.9709 57.8599 75.3687C59.0161 74.0438 59.5942 72.6286 59.5942 71.123C59.5942 69.7259 59.1125 68.401 58.1489 67.1484C57.1974 65.8958 55.7461 64.8359 53.7949 63.9688L48.2305 66.0464ZM48.2305 64.3481C50.2298 63.8182 51.8799 63.216 53.1807 62.5415C54.4935 61.855 55.439 61.1685 56.0171 60.4819C56.6073 59.7954 56.9023 59.145 56.9023 58.5308C56.9023 57.0493 55.3366 56.3086 52.2051 56.3086C51.2054 56.3086 50.4647 56.3507 49.9829 56.4351C49.5011 56.5073 49.1217 56.6338 48.8447 56.8145C48.6038 56.9951 48.4412 57.2541 48.3569 57.5913L48.2666 58.1875L48.2305 58.9824V64.3481ZM55.7461 63.1558C58.4922 64.0109 60.5156 65.1973 61.8164 66.7148C63.1292 68.2324 63.7856 69.8704 63.7856 71.6289C63.7856 72.1468 63.7435 72.6466 63.6592 73.1284C63.5749 73.5981 63.4424 74.0378 63.2617 74.4473C62.8281 75.6035 62.1175 76.5129 61.1299 77.1753C60.1423 77.8257 58.992 78.2954 57.6792 78.5845C56.3784 78.8615 55.0837 79 53.7949 79H41.7266V78.6206C42.5817 78.5122 43.196 78.193 43.5693 77.6631C43.9427 77.1211 44.1294 76.2479 44.1294 75.0435V59.416C44.1294 58.8499 44.1113 58.3621 44.0752 57.9526C44.0391 57.5311 43.9788 57.1698 43.8945 56.8687C43.75 56.2905 43.5031 55.8449 43.1538 55.5317C42.8527 55.2909 42.377 55.0981 41.7266 54.9536V54.6465H55.7461C59.4437 54.6465 61.2925 55.7305 61.2925 57.8984C61.2925 58.1273 61.2865 58.2959 61.2744 58.4043C61.2624 58.5007 61.2202 58.6452 61.1479 58.8379C61.0636 59.127 60.9191 59.4341 60.7144 59.7593C60.3892 60.2892 59.8231 60.8312 59.0161 61.3853C58.2694 61.9032 57.1794 62.4933 55.7461 63.1558ZM71.4458 69.2983C71.9155 71.0809 72.6021 72.5985 73.5054 73.8511C74.4087 75.1037 75.4325 76.0251 76.5767 76.6152C76.8175 76.7477 77.0825 76.8742 77.3716 76.9946C77.6727 77.103 77.9858 77.2054 78.311 77.3018C78.9494 77.4704 79.5456 77.5547 80.0996 77.5547C81.4847 77.5547 82.8276 77.1632 84.1284 76.3804C85.3449 75.6577 86.3385 74.6038 87.1094 73.2188C87.8923 71.8337 88.2837 70.2679 88.2837 68.5215C88.2837 66.6185 87.8923 64.7095 87.1094 62.7944C86.3265 60.8794 85.1943 59.2956 83.7129 58.043C82.2435 56.7904 80.5332 56.1641 78.582 56.1641C77.0524 56.1641 75.7095 56.6217 74.5532 57.5371C73.397 58.4525 72.4937 59.6388 71.8433 61.0962C71.6867 61.4696 71.5422 61.849 71.4097 62.2344C71.2772 62.6077 71.1688 62.9631 71.0845 63.3003C70.9279 64.047 70.8496 64.7757 70.8496 65.4863C70.8496 66.0524 70.8857 66.6185 70.958 67.1846C71.0303 67.7386 71.1929 68.4432 71.4458 69.2983ZM79.4673 54.1226C80.9006 54.1226 82.2314 54.2912 83.46 54.6284C84.7005 54.9536 85.8327 55.4354 86.8564 56.0737C88.8438 57.2661 90.3192 58.8439 91.2827 60.8071C92.2583 62.7703 92.7461 64.8359 92.7461 67.0039C92.7461 68.7142 92.4028 70.3341 91.7163 71.8638C91.0298 73.3934 90.0662 74.7424 88.8257 75.9106C87.5972 77.0789 86.1458 77.9883 84.4717 78.6387C82.7975 79.277 81.009 79.5962 79.106 79.5962C78.6362 79.5962 78.1785 79.5721 77.7329 79.5239C77.2873 79.4757 76.8416 79.3975 76.396 79.2891C75.9624 79.1807 75.5469 79.0602 75.1494 78.9277C74.752 78.7832 74.3244 78.6025 73.8667 78.3857C72.3371 77.6992 71.0544 76.7899 70.0186 75.6577C68.9827 74.5135 68.1577 73.2188 67.5435 71.7734C67.2544 71.0628 67.0075 70.3221 66.8027 69.5513C66.61 68.7684 66.5137 68.0216 66.5137 67.311C66.5137 65.5767 66.8088 63.9085 67.3989 62.3066C68.0011 60.7048 68.8503 59.2956 69.9463 58.0791C71.0544 56.8626 72.3913 55.8991 73.957 55.1885C75.5348 54.4779 77.2752 54.1226 79.1782 54.1226H79.4673ZM102.394 65.9741C103.056 65.7814 103.755 65.5465 104.489 65.2695C105.224 64.9925 105.91 64.6914 106.549 64.3662C107.922 63.6917 109.078 62.939 110.018 62.1079C110.957 61.2648 111.427 60.4217 111.427 59.5786C111.427 58.7957 111.114 58.1634 110.487 57.6816C109.873 57.1999 109.12 56.8506 108.229 56.6338C107.338 56.417 106.531 56.3086 105.808 56.3086C105.254 56.3086 104.766 56.3568 104.345 56.4531C103.935 56.5495 103.556 56.682 103.207 56.8506C102.665 57.1276 102.394 57.7118 102.394 58.603V65.9741ZM102.394 67.7808V74.8086C102.394 77.3499 103.188 78.6206 104.778 78.6206V79H95.8896V78.6206C96.516 78.4881 96.9676 78.3376 97.2446 78.1689C97.5337 78.0003 97.7866 77.627 98.0034 77.0488C98.1961 76.4346 98.2925 75.5674 98.2925 74.4473V58.603C98.2925 57.4468 98.0877 56.5495 97.6782 55.9111C97.2808 55.2728 96.6846 54.9536 95.8896 54.9536V54.6465H109.909C111.535 54.6465 112.86 54.9717 113.884 55.6221C114.908 56.2604 115.419 57.2541 115.419 58.603L115.347 59.416C115.239 60.1387 114.908 60.8734 114.354 61.6201C114.101 61.9694 113.763 62.3428 113.342 62.7402C112.932 63.1257 112.481 63.493 111.987 63.8423C110.975 64.5529 109.668 65.2454 108.066 65.9199C106.513 66.5583 104.622 67.1785 102.394 67.7808Z" fill="white"/>
</svg>
